<svg xmlns="http://www.w3.org/2000/svg" xmlns:xlink="http://www.w3.org/1999/xlink" width="500" zoomAndPan="magnify" viewBox="0 0 375 374.999991" height="500" preserveAspectRatio="xMidYMid meet" version="1.0"><path fill="#000000" d="M 90.890625 284.136719 C 37.527344 230.71875 37.46875 144.28125 90.890625 90.921875 C 144.3125 37.558594 230.746094 37.5 284.109375 90.921875 C 337.46875 144.339844 337.527344 230.777344 284.109375 284.136719 C 230.6875 337.5 144.3125 337.5 90.890625 284.136719 Z M 187.527344 60.253906 C 117.394531 60.253906 60.28125 117.367188 60.28125 187.5 C 60.28125 257.632812 117.394531 314.746094 187.527344 314.746094 C 257.660156 314.746094 314.777344 257.632812 314.777344 187.5 C 314.777344 117.367188 257.660156 60.253906 187.527344 60.253906 Z M 187.527344 60.253906 " fill-opacity="1" fill-rule="nonzero"/><path fill="#000000" d="M 232.621094 147.097656 C 224.003906 145.398438 224.003906 133.140625 232.621094 131.265625 C 240.480469 129.679688 245.523438 139.414062 239.894531 144.867188 C 238.019531 146.746094 235.261719 147.625 232.621094 147.097656 Z M 232.621094 147.097656 " fill-opacity="1" fill-rule="nonzero"/><path fill="#000000" d="M 232.621094 268.480469 L 142.433594 268.480469 C 122.613281 268.480469 106.605469 252.414062 106.546875 232.59375 L 106.546875 142.40625 C 106.546875 122.585938 122.613281 106.578125 142.433594 106.519531 L 232.621094 106.519531 C 252.441406 106.519531 268.453125 122.585938 268.511719 142.40625 L 268.511719 232.59375 C 268.453125 252.414062 252.441406 268.421875 232.621094 268.480469 Z M 142.433594 115.902344 C 127.835938 115.902344 115.929688 127.746094 115.929688 142.40625 L 115.929688 232.59375 C 115.929688 247.195312 127.773438 259.097656 142.433594 259.097656 L 232.621094 259.097656 C 247.222656 259.097656 259.128906 247.253906 259.128906 232.59375 L 259.128906 142.40625 C 259.128906 127.804688 247.28125 115.902344 232.621094 115.902344 Z M 142.433594 115.902344 " fill-opacity="1" fill-rule="nonzero"/><path fill="#000000" d="M 187.527344 230.777344 C 163.605469 230.777344 144.253906 211.367188 144.253906 187.5 C 144.253906 163.632812 163.664062 144.222656 187.527344 144.222656 C 211.394531 144.222656 230.804688 163.632812 230.804688 187.5 C 230.804688 211.425781 211.453125 230.777344 187.527344 230.777344 Z M 187.527344 153.605469 C 168.824219 153.605469 153.636719 168.792969 153.636719 187.5 C 153.636719 206.207031 168.824219 221.394531 187.527344 221.394531 C 206.234375 221.394531 221.421875 206.207031 221.421875 187.5 C 221.421875 168.792969 206.234375 153.605469 187.527344 153.605469 Z M 187.527344 153.605469 " fill-opacity="1" fill-rule="nonzero"/></svg>