<svg xmlns="http://www.w3.org/2000/svg" xmlns:xlink="http://www.w3.org/1999/xlink" width="500" zoomAndPan="magnify" viewBox="0 0 375 374.999991" height="500" preserveAspectRatio="xMidYMid meet" version="1.0"><defs><clipPath id="bf3df9c8cc"><path d="M 49.6875 37.5 L 325.6875 37.5 L 325.6875 337.5 L 49.6875 337.5 Z M 49.6875 37.5 " clip-rule="nonzero"/></clipPath></defs><g clip-path="url(#bf3df9c8cc)"><path fill="#000000" d="M 187.5 140.753906 L 259.777344 37.53125 L 325.6875 37.53125 L 220.457031 187.5 L 325.6875 337.46875 L 259.777344 337.46875 L 187.5 234.621094 L 115.222656 337.46875 L 49.6875 337.46875 L 154.917969 187.5 L 49.6875 37.53125 L 115.222656 37.53125 Z M 109.605469 48.378906 L 187.5 159.453125 L 265.394531 48.378906 L 305.089844 48.378906 L 207.347656 187.5 L 305.089844 326.996094 L 265.394531 326.996094 L 187.5 215.546875 L 109.605469 326.996094 L 70.285156 326.996094 L 168.027344 187.5 L 70.285156 48.378906 Z M 109.605469 48.378906 " fill-opacity="1" fill-rule="evenodd"/></g></svg>